<svg width="400" height="400" viewBox="0 0 400 400" fill="none" xmlns="http://www.w3.org/2000/svg">
<g clip-path="url(#clip0_3383_15685)">
<mask id="mask0_3383_15685" style="mask-type:luminance" maskUnits="userSpaceOnUse" x="0" y="0" width="400" height="400">
<path d="M400 0H0V400H400V0Z" fill="white"/>
</mask>
<g mask="url(#mask0_3383_15685)">
<path d="M378 378C385.2 385.2 396 381.6 396 370.8V234C396 219.6 385.2 205.2 367.2 205.2H237.6C226.8 205.2 219.6 216 226.8 223.2L378 378Z" fill="white"/>
<path d="M176.4 172.8C183.6 180 194.4 176.4 194.4 165.6V28.8C194.4 14.4 183.6 0 165.6 0H32.4004C21.6002 0 18.0002 14.4 25.2002 21.6L176.4 172.8Z" fill="white"/>
<path d="M370.8 198C385.2 198 399.6 187.2 399.6 169.2V36C399.6 25.2 385.2 18 378 25.2L226.8 176.4C219.6 183.6 226.8 198 237.6 198H370.8Z" fill="white"/>
<path d="M18 25.2C10.8 18 0 25.2 0 36V169.2C0 183.6 10.8 198 28.8 198H162C172.8 198 176.4 187.2 169.2 180L18 25.2Z" fill="white"/>
<path d="M223.2 230.4C216 223.2 201.6 226.8 201.6 237.6V370.8C201.6 385.2 212.4 399.6 230.4 399.6H363.6C374.4 399.6 378 388.8 370.8 381.6L223.2 230.4Z" fill="white"/>
<path d="M173.346 231.346C180.546 224.146 194.946 227.746 194.946 238.546V371.747C194.946 386.147 184.146 400.547 166.146 400.547H32.9457C22.1457 400.547 18.5457 389.747 25.7457 382.547L173.346 231.346Z" fill="white"/>
<path d="M230.4 0C216 0 201.6 10.8 201.6 28.8V162C201.6 172.8 212.4 176.4 219.6 169.2L370.8 18C378 10.8 374.4 0 363.6 0H230.4Z" fill="white"/>
<path d="M25.2 205.2C10.8 205.2 0 216 0 234V367.2C0 378 10.8 381.6 18 374.4L169.2 223.2C176.4 216 172.8 205.2 162 205.2H25.2Z" fill="white"/>
</g>
</g>
<defs>
<clipPath id="clip0_3383_15685">
<rect width="400" height="400" fill="white"/>
</clipPath>
</defs>
</svg>
