<svg width="50" height="42" viewBox="0 0 50 42" xmlns="http://www.w3.org/2000/svg">
<path d="M35.146 33.2265C35.7 33.76 36.654 33.3747 36.654 32.6337V22.7932C36.654 21.6669 35.7 20.748 34.5305 20.748H24.3129C23.5435 20.748 23.1434 21.6669 23.6974 22.2004L35.146 33.2265Z" fill="#fff"/>
<path d="M19.635 18.3176C20.1889 18.8511 21.143 18.4658 21.143 17.7248V7.85461C21.143 6.72829 20.1889 5.80945 19.0195 5.80945H8.80188C8.03248 5.80945 7.63239 6.72829 8.18636 7.26181L19.635 18.3176Z" fill="#fff"/>
<path d="M34.5305 20.1553C35.7 20.1553 36.654 19.2364 36.654 18.1101V8.26958C36.654 7.52858 35.7 7.14326 35.146 7.67678L23.6666 18.7325C23.1434 19.2661 23.5127 20.1553 24.3129 20.1553H34.5305Z" fill="#fff"/>
<path d="M19.0195 35.0939C20.189 35.0939 21.143 34.175 21.143 33.0487V23.2082C21.143 22.4672 20.189 22.0819 19.635 22.6154L8.1556 33.6711C7.60163 34.2047 8.00172 35.1235 8.77112 35.1235H19.0195V35.0939Z" fill="#fff"/>
<path d="M7.75552 7.67678C7.20155 7.14326 6.2475 7.52858 6.2475 8.26958V18.1101C6.2475 19.2364 7.20155 20.1553 8.37103 20.1553H18.5886C19.358 20.1553 19.7581 19.2364 19.2041 18.7029L7.75552 7.67678Z" fill="#fff"/>
<path d="M23.2358 22.6154C22.6818 22.0819 21.7278 22.4672 21.7278 23.2082V33.0487C21.7278 34.175 22.6818 35.0939 23.8513 35.0939H34.0689C34.8383 35.0939 35.2384 34.175 34.6844 33.6415L23.2358 22.6154Z" fill="#fff"/>
<path d="M23.8821 5.83909C22.7126 5.83909 21.7585 6.75793 21.7585 7.88425V17.7248C21.7585 18.4658 22.7126 18.8511 23.2666 18.3176L34.746 7.26181C35.2999 6.72829 34.8998 5.80945 34.1304 5.80945H23.8821V5.83909Z" fill="#fff"/>
<path d="M8.37103 20.7481C7.20155 20.7481 6.2475 21.6669 6.2475 22.7933V32.6338C6.2475 33.3748 7.20155 33.7601 7.75552 33.2266L19.2041 22.1708C19.7581 21.6373 19.358 20.7184 18.5886 20.7184H8.37103V20.7481Z" fill="#fff"/>
<path d="M40.6549 34.5011C40.6549 34.7085 40.5934 34.8567 40.4395 34.9753C40.2856 35.0939 40.1009 35.1531 39.824 35.1531C39.547 35.1531 39.3623 35.1235 39.1777 35.0346V34.6789C39.27 34.7382 39.3931 34.7678 39.5162 34.7975C39.6393 34.8271 39.7316 34.8271 39.8547 34.8271C40.0086 34.8271 40.101 34.7975 40.1933 34.7382C40.2856 34.6789 40.2856 34.6196 40.2856 34.5307C40.2856 34.4418 40.2548 34.3825 40.1933 34.3232C40.1317 34.2639 40.0086 34.2047 39.7932 34.1157C39.5778 34.0268 39.4239 33.9379 39.3623 33.849C39.27 33.7304 39.2392 33.6119 39.2392 33.4637C39.2392 33.2858 39.3008 33.1376 39.4547 33.0191C39.5778 32.9005 39.7624 32.8708 40.0086 32.8708C40.2241 32.8708 40.4395 32.9301 40.6549 33.0191L40.5318 33.3155C40.3164 33.2265 40.1625 33.1969 39.9778 33.1969C39.8547 33.1969 39.7624 33.2265 39.7009 33.2858C39.6393 33.3451 39.6085 33.4044 39.6085 33.4933C39.6085 33.5526 39.6085 33.6119 39.6393 33.6415C39.6701 33.6711 39.7009 33.7304 39.7624 33.7601C39.824 33.7897 39.9163 33.849 40.0702 33.9083C40.2241 33.9675 40.3472 34.0268 40.4395 34.0861C40.5318 34.1454 40.5626 34.2047 40.6241 34.2936C40.6241 34.3232 40.6549 34.4121 40.6549 34.5011Z" fill="#fff"/>
<path d="M42.0706 35.0939L41.3935 33.2562C41.4243 33.523 41.4243 33.7897 41.4243 34.0268V35.0939H41.0858V32.9005H41.6089L42.2552 34.6493L42.9015 32.9005H43.4247V35.0939H43.0862V33.9972C43.0862 33.8786 43.0862 33.7601 43.0862 33.5822C43.0862 33.4044 43.0862 33.2858 43.0862 33.2562L42.4091 35.0939H42.0706Z" fill="#fff"/>
</svg>
